<svg xmlns="http://www.w3.org/2000/svg" viewBox="0 0 86.73 58.02"><g data-name="Layer 2"><g data-name="Layer 1"><path d="M61.83 32.94V33c0 4.18-3 7.26-8 7.26a10.79 10.79 0 0 1-8.67-3.84l3.37-3.2a6.78 6.78 0 0 0 5.36 2.66c1.85 0 3.15-1 3.15-2.69 0-.05.36-2.89-4.35-2.89h-2l-.76-3.1L57 20l-2.85 1.84h-7.69v-4.15h15v3.68l-5.63 5.36c3 .51 6 2.09 6 6.21M47.89 7.55a3.48 3.48 0 0 1 3.47-3.63h2.28l-.6.3c0 5.5-.11 6.2.25 7h-1.91a3.52 3.52 0 0 1-3.49-3.65Zm3.47 4.6h2v-.73A1.39 1.39 0 0 0 54 12c.65.31.18.11 18.67.17V3h-1v8.21s-16.9.06-17.22-.08a.86.86 0 0 1-.43-.72C54 9.92 54 9.91 54 3h-2.62a4.48 4.48 0 0 0-4.53 4.57 4.44 4.44 0 0 0 4.51 4.55M79.88 2h-2.14c.05-.7-.28-2 1.16-2h.69v.68c-.67 0-1-.16-1 .37v.22h1.34Zm2.47 10.26a3.21 3.21 0 0 1-.8-.11l.26-.94c.44.13 1 .14 1.24-.26s.17-.63.19-8h1c0 6.85.07 7-.09 7.84a1.63 1.63 0 0 1-1.77 1.44M54 2h-1V1h1Zm21.48 3.38A2.73 2.73 0 0 1 77.88 4h1.58l-.56.28v4.35a6.77 6.77 0 0 1-2-.15 2.16 2.16 0 0 1-1.62-2.14 2.08 2.08 0 0 1 .22-1m0 3.45a5.29 5.29 0 0 0 3.09.77l.33-.68c-.05.66.19 1.59-.44 2.06a2.74 2.74 0 0 1-2 .24 4.08 4.08 0 0 1-.82-.29l-.31.94a5.28 5.28 0 0 0 1.87.41 2.76 2.76 0 0 0 2.07-.67 2.53 2.53 0 0 0 .65-1.82V3a10.32 10.32 0 0 0-3.21.25 3.19 3.19 0 0 0-1.19 5.58M52.07 2h-1V1h1ZM42 3h1v9.14h-.82l-6.51-8.23.57 1.33v6.89h-1V3h1l6.2 7.86L42 9.73ZM4 12.2 0 3h1.15l3.52 8.49-.1-1L7.68 3h1.11l-3.94 9.2ZM21.39 3h1v9.14h-1Zm11.08 4.58a3.59 3.59 0 0 1-3.58 3.75 3.63 3.63 0 0 1-3.61-3.77 3.59 3.59 0 0 1 3.58-3.75 3.64 3.64 0 0 1 3.61 3.78Zm-3.58-4.75a4.64 4.64 0 0 0-4.69 4.73 4.67 4.67 0 1 0 9.34 0 4.59 4.59 0 0 0-4.65-4.7m-9.21 6.79c0 1.57-1.31 2.59-3.12 2.59a5.34 5.34 0 0 1-3.74-1.47l.64-.75a4.36 4.36 0 0 0 3.14 1.29c1.23 0 2-.65 2-1.55 0-2.55-5.46-.87-5.46-4.37 0-1.44 1.27-2.49 3-2.49A4.82 4.82 0 0 1 19.41 4l-.6.8c-2.08-1.69-4.6-1.05-4.6.48 0 .86.48 1.34 2.49 1.77s3 1.19 3 2.59m-8.45 2.48h-1V3h1Zm60.14 1h1v1h-1Zm-2 0h1v1h-1ZM8.18 35.67h8.48v4.22H.2V36c8.22-7 11.25-8.34 11.25-11.38a2.73 2.73 0 0 0-3-2.89c-1.71 0-2.89.95-4.54 3L.49 22c2.19-3 4.32-4.59 8.29-4.59 4.6 0 7.65 2.69 7.65 6.85v.06c0 5.21-3.94 6.89-10.7 12.33l-.94.73Zm73.44-6.82A6.65 6.65 0 0 1 75 35.77a6.75 6.75 0 0 1-6.74-7v-.06a6.64 6.64 0 0 1 6.67-6.91 6.75 6.75 0 0 1 6.74 7ZM75 17.31a11.49 11.49 0 0 0-11.9 11.48v.06a11.38 11.38 0 0 0 11.78 11.42 11.49 11.49 0 0 0 11.85-11.48v-.06A11.38 11.38 0 0 0 75 17.31" style="fill:#fff"/><path d="m30 15.85 1.13 1.08L30 18.06 28.87 17" style="fill:#29367b"/><path d="m32.53 17 1.12 1.08 1.08-1.13-1.12-1.08" style="fill:#b1aeb3"/><path d="m30.94 18.39.88.84.84-.87-.88-.84" style="fill:#d0da33"/><path d="m34.16 18.87.87.85.84-.88L35 18" style="fill:#71ba44"/><path d="m29.51 19.73.87.84.84-.87-.87-.84" style="fill:#d0da33"/><path d="m32.45 19.83.88.84.84-.87-.88-.8" style="fill:#27b8be"/><path d="m31.3 20.84.62.59.59-.61-.62-.59" style="fill:#71ba44"/><path d="m33.62 21.3.62.6.59-.62-.61-.59" style="fill:#58b75e"/><path d="m38.71 16.62 1.91-.35.38 1.91-1.91.35Z" style="fill:#3088c8"/><path d="m36.21 17.42 1.53-.28.26 1.53-1.51.33Z" style="fill:#1e3871"/><path d="m39.18 19.56 1.53-.28.29 1.53-1.53.28Z" style="fill:#27b8be"/><path d="m37.06 19.78 1.19-.22.22 1.2-1.19.24Z" style="fill:#d0da33"/><path d="m39.39 22.05 1.19-.22.22 1.17-1.2.22Z" style="fill:#b1aeb3"/><path d="m35.27 20.27 1.19-.22.22 1.19-1.19.22Z" style="fill:#27b8be"/><path d="m37.44 21.83 1.19-.22.22 1.19-1.19.2Z" style="fill:#71ba44"/><path d="m35.92 22 .84-.15.15.84-.84.15Z" style="fill:#b1aeb3"/><path d="m37.53 23.71.84-.15.15.83-.84.16Z" style="fill:#58b75e"/><path d="m44.4 22.88-.84 1.75 1.76.84.83-1.76" style="fill:#29367b"/><path d="m41.9 22.07-.67 1.4 1.41.67.67-1.4" style="fill:#27b8be"/><path d="m43.06 25.53-.67 1.41 1.41.67.67-1.41" style="fill:#71ba44"/><path d="m41.21 24.48-.52 1.09 1.1.52.52-1.09M41.77 27.67l-.53 1.1 1.1.52.52-1.09" style="fill:#d0da33"/><path d="M39.47 23.83 39 24.92l1.1.52.52-1.09" style="fill:#3088c8"/><path d="m40.32 26.36-.53 1.1 1.1.52.52-1.1" style="fill:#b1aeb3"/><path d="m39 25.59-.37.77.77.36.37-.77" style="fill:#71ba44"/><path d="m38.92 28.71.37-.78.77.37-.37.77Z" style="fill:#27b8be"/><path d="m45.34 31.27-1.7.94.93 1.7 1.71-.91" style="fill:#3088c8"/><path d="m43.8 29.16-1.37.75.75 1.37 1.37-.75M42.7 32.64l-1.37.75.75 1.37 1.37-.76" style="fill:#27b8be"/><path d="m41.82 30.71-1.06.58.58 1.07 1.07-.59" style="fill:#29367b"/><path d="m40.4 33.63-1.07.58.59 1.06 1.08-.58" style="fill:#58b75e"/><path d="m40.79 29.17-1.06.58.58 1.06 1.07-.58" style="fill:#1e3871"/><path d="m40 31.72-1.06.58.58 1.06 1.07-.58" style="fill:#d0da33"/><path d="m39.38 30.32-.75.41.41.75.75-.41" style="fill:#b1aeb3"/><path d="m38.23 32.39-.74.42.41.74.75-.41" style="fill:#27b8be"/><path d="m39 40.32.24-1.93 1.93.24-.17 1.93Z" style="fill:#71ba44"/><path d="m39.43 37.37.2-1.54 1.54.19-.17 1.55Z" style="fill:#1e3871"/><path d="m36.5 39.56.19-1.56 1.55.2-.19 1.54Z" style="fill:#27b8be"/><path d="m37.31 37.18.15-1.2 1.2.15-.14 1.2Z" style="fill:#71ba44"/><path d="m34.45 38.72.14-1.21 1.21.15-.15 1.21ZM37.38 35.33l.15-1.21 1.21.15-.15 1.21Z" style="fill:#b1aeb3"/><path d="m35.24 36.92.15-1.2 1.2.15-.15 1.2Z" style="fill:#71ba44"/><path d="m36 35.12.1-.84.85.1-.1.85ZM33.81 36.14l.11-.85.85.11-.11.84Z" style="fill:#b1aeb3"/><path d="m33.5 42.18-1.42-1.32-1.32 1.42 1.42 1.32" style="fill:#d0da33"/><path d="m33.24 15-1.42-1.32-1.33 1.42 1.43 1.33" style="fill:#71ba44"/><path d="M35 40.05 33.88 39l-1.06 1.14L34 41.19" style="fill:#27b8be"/><path d="m31.37 40.11-1.15-1.06-1.06 1.14 1.15 1.06" style="fill:#71ba44"/><path d="m32.93 38.67-.93-.83-.83.89.89.83" style="fill:#3088c8"/><path d="m29.71 38.24-.89-.83-.82.89.89.83M34.07 37.21l-.89-.83-.82.89.89.83" style="fill:#d0da33"/><path d="m31.4 37.25-.89-.82-.83.89.89.82" style="fill:#b1aeb3"/><path d="m32.53 36.23-.62-.58-.59.62.63.58" style="fill:#1e3871"/><path d="m30.2 35.8-.63-.58-.58.63.63.58" style="fill:#b1aeb3"/><path d="m22.91 39 1.9-.38.38 1.91-1.9.38Z" style="fill:#3088c8"/><path d="m25.84 38.5 1.53-.3.31 1.52-1.53.28Z" style="fill:#27b8be"/><path d="m22.84 36.42 1.53-.31.31 1.53-1.53.3Z" style="fill:#71ba44"/><path d="m25.36 36.43 1.19-.24.24 1.19-1.19.24Z" style="fill:#d0da33"/><path d="m27.14 35.91 1.19-.23.24 1.19-1.19.23Z" style="fill:#29367b"/><path d="m25 34.39 1.19-.24.24 1.19-1.2.24Z" style="fill:#3088c8"/><path d="m26.89 34.5.84-.16.17.83-.84.17Z" style="fill:#71ba44"/><path d="m25.25 32.79.83-.16.17.83-.84.17Z" style="fill:#b1aeb3"/><path d="m19.4 34.41.81-1.77-1.77-.81-.81 1.77" style="fill:#27b8be"/><path d="m21.91 35.17.65-1.41-1.42-.65-.65 1.42" style="fill:#d0da33"/><path d="m20.7 31.73.64-1.42-1.42-.64-.64 1.41" style="fill:#3088c8"/><path d="m21.45 32.25.51-1.1 1.1.5-.5 1.11Z" style="fill:#27b8be"/><path d="m24 35.51.51-1.1-1.11-.5-.5 1.1" style="fill:#b1aeb3"/><path d="m20.85 29.06.5-1.1 1.11.5-.46 1.11Z" style="fill:#29367b"/><path d="m23.2 32.87.51-1.1 1.1.5-.5 1.11Z" style="fill:#58b75e"/><path d="m22.32 30.36.5-1.11 1.11.51-.51 1.1Z" style="fill:#d0da33"/><path d="m24.76 31.61.35-.78-.78-.35-.35.77" style="fill:#1e3871"/><path d="m24.42 29.26.36-.77-.78-.36-.35.78" style="fill:#71ba44"/><path d="m18.32 26 1.69-1-1-1.68-1.69 1" style="fill:#27b8be"/><path d="m19.9 28.11 1.35-.77-.77-1.34-1.36.77" style="fill:#71ba44"/><path d="m20.94 24.61 1.35-.77-.77-1.35-1.36.77" style="fill:#1e3871"/><path d="m21.85 26.53 1-.6-.6-1.05-1.06.6" style="fill:#3088c8"/><path d="m23.22 23.59 1.06-.6-.61-1-1.05.6" style="fill:#71ba44"/><path d="m22.9 28.06 1.05-.6-.6-1.06-1.05.6" style="fill:#27b8be"/><path d="m23.66 25.5 1.05-.6-.6-1.06-1.05.6" style="fill:#d0da33"/><path d="m24.3 26.88.74-.42-.42-.74-.74.42" style="fill:#b1aeb3"/><path d="m25.4 24.79.75-.42-.43-.74-.74.42M22.35 18.6l.2-1.93 1.94.2-.21 1.94Z" style="fill:#71ba44"/><path d="m22.41 21.21.16-1.54 1.55.16-.12 1.55Z" style="fill:#b1aeb3"/><path d="m25.3 19 .17-1.55 1.53.15-.17 1.55Z" style="fill:#27b8be"/><path d="m24.92 21.07.08-1.21 1.21.13-.13 1.21Z" style="fill:#d0da33"/><path d="m27.75 19.48.13-1.2 1.21.13-.09 1.2Z" style="fill:#3088c8"/><path d="m24.87 22.92.13-1.2 1.21.13-.13 1.2Z" style="fill:#27b8be"/><path d="m27 21.29.13-1.21 1.21.13-.13 1.21Z" style="fill:#71ba44"/><path d="m26.7 22.79.09-.85.85.09-.09.85Z" style="fill:#1e3871"/><path d="m28.82 21.73.09-.85.85.1-.09.84Z" style="fill:#b1aeb3"/><path d="M38 29.83a4.6 4.6 0 0 0-3.9-.22 7.35 7.35 0 0 0-1.83 1.08 19.85 19.85 0 0 1-.09-4.94c.73.46.53 1.75.37 2.12a2.25 2.25 0 0 0 .28-2.57c0-.05.18.11.35.33a2.47 2.47 0 0 1 .41 1.7 2.16 2.16 0 0 0-.59-2.65s.12 0 .17 0a1.78 1.78 0 0 1 1.12 1.71A1.7 1.7 0 0 0 33 24.18a1.69 1.69 0 0 1 1.19.24c.32.22.41.48.4.41a1.41 1.41 0 0 0-1.91-1 .94.94 0 0 1 .93-.44 1.06 1.06 0 0 1 .34.08 1.07 1.07 0 0 0-1.76.08 3.34 3.34 0 0 1-.37-1 4.16 4.16 0 0 1-.38 1 1.07 1.07 0 0 0-1.76-.08 1.1 1.1 0 0 1 1.28.35 1.4 1.4 0 0 0-1.91 1 1.1 1.1 0 0 1 .26-.31 1.64 1.64 0 0 1 1.32-.34 1.74 1.74 0 0 0-1.32 1.06c-.22.58 0 1.34 0 1.15a1.75 1.75 0 0 1 1.28-1.72 2.1 2.1 0 0 0-.59 2.67 2.16 2.16 0 0 1 .74-2 2.25 2.25 0 0 0 .28 2.57c-.15-.37-.36-1.66.37-2.12a19.85 19.85 0 0 1-.09 4.94 5.6 5.6 0 0 0-3.78-1.41 4.29 4.29 0 0 0-1.95.55c2.15-.69 4 .14 5.72 1.58a19.91 19.91 0 0 1-2.12 1.79.47.47 0 0 0-.49-.19.48.48 0 0 0-.27.77c.75.75 1.93-.74 3.34-2 1.35 1.19 2.58 2.73 3.33 2a.52.52 0 0 0 .09-.41.47.47 0 0 0-.85-.17 20.05 20.05 0 0 1-2.12-1.79C34 30 35.84 29.18 38 29.86" style="fill:#727a82"/><path d="M31.15 50.31h.56v-5h-.56Zm-14.63-.55-.87-2.14a2 2 0 0 1 2.74 0l-.87 2.14Zm-3.07 0a4 4 0 0 1-1.16-.09 1.32 1.32 0 0 1 .59-2.57h.57Zm15.52 0c-.9 0-1.71.15-2.13-.56a13.87 13.87 0 0 0 .05-2.32h-.55v1.89c0 1.38-1.68 1.29-2.07.46-.16-.33-.06-.47-.09-2.35h-.56v1.93a.87.87 0 0 1-.94.95H21.6v-2.88H21v2.88h-2.89l1-2.34a3.46 3.46 0 0 0-2.11-.94 3.33 3.33 0 0 0-2.07.94l1 2.34H14v-3.23h-.9a2.07 2.07 0 0 0-2.31 1.92c0 2.11 2.6 1.85 2.65 1.86s.07.55-.25.79a1.59 1.59 0 0 1-1.17.14 2.26 2.26 0 0 1-.47-.17l-.18.54a3.08 3.08 0 0 0 1.07.24c1.06 0 1.56-.54 1.56-1.43v-.11c9.11-.05 8.84.13 9.39-.17a1.44 1.44 0 0 0 .51-.47 1.37 1.37 0 0 0 .55.52 2 2 0 0 0 1.69 0 1.23 1.23 0 0 0 .54-.54 1.32 1.32 0 0 0 1.22.64h1.61v-5H29Zm50.08-.25a1.46 1.46 0 0 1-2.68 0 1.47 1.47 0 0 1 0-1.13 1.45 1.45 0 0 1 2.8.57 1.4 1.4 0 0 1-.12.58m-5.41 0a1.47 1.47 0 0 1-2.39.44 1.5 1.5 0 0 1 0-2.06 1.47 1.47 0 0 1 2.39 1.62m-13.58.25a4 4 0 0 1-1.14-.09 1.33 1.33 0 0 1 .59-2.58h.55v2.67Zm21.41 0h-1.92a2 2 0 1 0-3.68 0h-1.73a2 2 0 1 0-3.69 0h-1.77v-4.47h-.56v4.45h-1.78c0-.58.13-1.42-.35-2a1.42 1.42 0 0 0-1.18-.48h-2.47l1-2h-.6l-1.07 2a1 1 0 0 0 .25.57c2.79 0 3-.06 3.3.08a.75.75 0 0 1 .47.54 6.49 6.49 0 0 1 0 1.26h-5.07v-3.2h-.88c-1.48 0-2.3.88-2.3 1.9 0 1.27 1 1.88 2.3 1.88h11.07a2 2 0 0 0 3 0h2.46a2 2 0 0 0 3 0H82v-5h-.56v4.45Zm2.18.55h.56v-5h-.56Zm-41.13 1.21h.58V51h-.58ZM48 49.76l-.87-2.14a2.06 2.06 0 0 1 2.74 0L49 49.76Zm4 0h-2.43l1-2.34a3.44 3.44 0 0 0-2.06-.94 3.3 3.3 0 0 0-2.07.94l1 2.34h-2.12v-3.23h-.56v3.9c0 .49 0 .86-.53.86a.92.92 0 0 1-.29 0l-.14.53a1.16 1.16 0 0 0 1.29-.31 2.35 2.35 0 0 0 .23-1.16h7.18v-5h-.56v4.45ZM9.56 47A1.89 1.89 0 0 0 8 46.53v.56a1.81 1.81 0 0 1 .87.09.8.8 0 0 1 .46.54 11.07 11.07 0 0 1 0 2H6.74v.55h3.18a13 13 0 0 0-.09-2.8 1.29 1.29 0 0 0-.27-.47m30.92 4.53h.58V51h-.58Zm-3.39-1.79a3.91 3.91 0 0 1-1.09-.07 1.33 1.33 0 0 1 .59-2.58h.55Zm6-3.23h-.56v3.23h-2.11v-3.21h-.55v3.23h-2.22v-3.23a3.76 3.76 0 0 0-2.56.54c-1.14 1-.84 3.24 1.68 3.24h6.32Zm-3.58 5h.57V51h-.57ZM2.2 45.31h-.57v.58h.57Zm57.44 0h-.57v.58h.57Zm-22 0h-.57v.58h.57ZM5.49 51.55h.58V51h-.58Zm31.18-6.24h-.58v.58h.58Zm-33.49 0h-.57v.58h.57Zm1.34 6.24h.57V51h-.57Zm-1.9-1.79a4 4 0 0 1-1.14-.09 1.33 1.33 0 0 1 .59-2.58h.55ZM6 46.53h-.6v3.23H3.18v-3.23a5.87 5.87 0 0 0-1.83.14 2 2 0 0 0-1.19 1 1.92 1.92 0 0 0 0 1.61 2.24 2.24 0 0 0 2.11 1H6Zm48.16 3.78h.56v-5h-.56Zm6.5-5H60v.58h.58ZM.55 54h.7v2l1.89-2H4l-1.65 1.69L4.08 58h-.85l-1.36-1.84-.62.64V58h-.7M4.72 54h.7v4h-.7ZM6.5 54h.65l2.13 2.76V54H10v4h-.62l-2.19-2.88V58H6.5M10.84 56a2 2 0 0 1 2.05-2.05 2.15 2.15 0 0 1 1.54.54L14 55a1.39 1.39 0 0 0-2.41 1 1.33 1.33 0 0 0 1.36 1.42 1.55 1.55 0 0 0 1-.3v-.74h-1v-.61h1.7v1.63c-1.43 1.22-3.73.59-3.73-1.43M17 57.32a1.36 1.36 0 1 0 0-2.71h-.78v2.71ZM15.54 54H17a2 2 0 1 1 0 4h-1.46ZM23.23 56a1.35 1.35 0 1 0-2.7 0 1.37 1.37 0 0 0 1.36 1.42A1.34 1.34 0 0 0 23.23 56m-3.43 0a2.09 2.09 0 0 1 4.2 0 2 2 0 0 1-2.12 2 2 2 0 0 1-2.08-2M24.84 54h.75l1.21 1.89L28 54h.75v4h-.7v-2.9L26.8 57l-1.25-1.87V58h-.69M34.75 56a1.36 1.36 0 0 0-1.35-1.41A1.34 1.34 0 0 0 32.05 56a1.37 1.37 0 0 0 1.36 1.42A1.34 1.34 0 0 0 34.75 56m-3.43 0a2.09 2.09 0 0 1 4.17 0 2 2 0 0 1-2.09 2 2 2 0 0 1-2.08-2M36.36 54h3v.64h-2.3v1.06h2v.63h-2V58h-.7M41.54 57.37l.42-.5a1.83 1.83 0 0 0 1.26.52c.43 0 .7-.2.7-.5 0-.89-2.22-.28-2.22-1.8 0-1.22 1.7-1.53 2.8-.65l-.37.53c-.92-.69-1.73-.42-1.73.06 0 .88 2.22.32 2.22 1.79 0 1.4-2 1.54-3.08.55M47.77 56.37l-.69-1.59-.68 1.59Zm-1-2.42h.65l1.75 4h-.74L48 57h-1.86l-.41 1H45ZM49.59 56.27V54h.7v2.27c0 .74.38 1.13 1 1.13s1-.37 1-1.1V54H53v2.26A1.59 1.59 0 0 1 51.28 58a1.57 1.57 0 0 1-1.69-1.75M55.51 57.32a1.36 1.36 0 1 0 0-2.71h-.79v2.71ZM54 54h1.49a2 2 0 1 1 0 4H54ZM58.52 54h.7v4h-.7ZM64.41 56.37l-.69-1.59-.72 1.59ZM63.4 54h.65l1.76 4h-.74l-.41-1h-1.88l-.41 1h-.72ZM68.2 56c.5 0 .82-.26.82-.67 0-.43-.31-.66-.83-.66h-1V56Zm-1.73-2h1.78c.84 0 1.48.43 1.48 1.26a1.21 1.21 0 0 1-1 1.22L69.85 58H69l-1-1.38h-.88V58h-.7ZM73.13 56.37l-.69-1.59-.69 1.59Zm-1-2.42h.65l1.76 4h-.74l-.41-1H71.5l-.41 1h-.72ZM77 57.33c.48 0 .77-.18.77-.54 0-.34-.27-.54-.82-.54h-1.07v1.09Zm-.21-1.68c.45 0 .76-.18.76-.54 0-.31-.25-.51-.7-.51h-1v1.06ZM75.19 54H77c.7 0 1.31.33 1.31 1a.94.94 0 0 1-.57.89 1 1 0 0 1 .79 1c0 .71-.59 1.09-1.48 1.09h-1.86ZM79.38 54h.7v4h-.7ZM83.5 56.37l-.69-1.59-.68 1.59Zm-1-2.37h.65l1.75 4h-.74l-.4-1h-1.89l-.41 1h-.71Z" style="fill:#fff"/></g></g></svg>