<svg xmlns="http://www.w3.org/2000/svg" viewBox="0 0 226.83 64.58"><g data-name="Layer 2"><g data-name="Layer 1"><path d="M82.23 30.75v-12H78.9v12.17c0 2.73-1 3.54-2.7 3.54a6.68 6.68 0 0 1-2-.31l-.28 2.65a8.6 8.6 0 0 0 2.12.26c5.11 0 6.19-3.06 6.19-6.31ZM110.75 16.86a1.72 1.72 0 1 0-1.66-1.71 1.69 1.69 0 0 0 1.66 1.71ZM112.82 13.28a1.59 1.59 0 1 0-1.54-1.59 1.56 1.56 0 0 0 1.54 1.59ZM113.25 15.15a1.68 1.68 0 1 0 1.69-1.72 1.69 1.69 0 0 0-1.69 1.72ZM119.71 16.86a1.72 1.72 0 1 0-1.66-1.71 1.67 1.67 0 0 0 1.66 1.71ZM123.9 16.86a1.72 1.72 0 1 0-1.66-1.71 1.69 1.69 0 0 0 1.66 1.71Z" style="fill:#fff"/><path d="M146.37 24.76a31.06 31.06 0 0 0-.81-7l-3.25.46A31.23 31.23 0 0 1 143 25c0 .78-.08 2-.18 3H142c-2.22 0-2.78-.71-2.78-2.8v-5.92H136v6c0 1.82-.4 2.9-1.87 2.9s-1.92-1-1.92-2.93v-5h-3.31v4.57c0 2.5-.63 3.16-2.27 3.16H124v-9.2h-3.34V28H115v-9.22h-3.33V28h-5.27v-3.54c0-3.69-1.77-6-5.83-6-4.24 0-6.44 2.93-6.44 6.54 0 2.3-.68 3-1.89 3h-2.66V12.85h-3.33v17.79h5.85a3.43 3.43 0 0 0 3.33-1.94c.76 1.24 2.22 1.94 5.2 1.94h26c1.87 0 2.91-.65 3.36-1.86.43 1.31 1.74 2.09 3.59 2.09a3.78 3.78 0 0 0 3.66-2.09c.55 1.36 1.89 1.86 4.09 1.86H146a49.63 49.63 0 0 0 .37-5.88ZM103.13 28H101c-2.6 0-3.56-1.11-3.56-3.33s1.09-3.61 2.93-3.61 2.8 1.11 2.8 3.76ZM161.06 12.85h-3.33v15.17h-7.8v2.62h11.13V12.85z" style="fill:#fff"/><path d="m155.88 26.13-3.68-13.46-3.31.46 3.61 13h3.38zM165.32 12.85h3.33v17.8h-3.33zM190.21 30.64v-6.38c0-3.54-1.77-5.81-5.71-5.81-4.39 0-6.58 2.93-6.58 6.36s1.84 5.83 6.76 5.83Zm-9-6.15c0-2 1.11-3.41 3-3.41 1.69 0 2.7 1.06 2.7 3.58V28H185c-2.59 0-3.75-1.14-3.75-3.51ZM186.37 16.86a1.72 1.72 0 1 0-1.66-1.71 1.69 1.69 0 0 0 1.66 1.71ZM182.18 16.86a1.72 1.72 0 1 0-1.66-1.71 1.67 1.67 0 0 0 1.66 1.71ZM197.25 30.75v-12h-3.33v12.17c0 2.73-1 3.54-2.7 3.54a6.75 6.75 0 0 1-2.05-.31l-.27 2.65a8.54 8.54 0 0 0 2.12.26c5.15 0 6.23-3.06 6.23-6.31ZM201.26 12.85h3.33v17.8h-3.33zM203.69 36.8a8.54 8.54 0 0 0 2.12.26c5.19 0 6.19-3.06 6.19-6.31v-12h-3.33v12.17c0 2.73-1 3.54-2.7 3.54a6.75 6.75 0 0 1-2-.31ZM210.38 16.66a1.74 1.74 0 1 0-1.75-1.74 1.75 1.75 0 0 0 1.75 1.74ZM221.56 18.45c-4.65 0-6.69 3-6.69 6.34 0 3.58 1.84 5.85 6.76 5.85h2V31c0 2.38-1.74 3.36-4.37 3.36a21.15 21.15 0 0 1-3.96-.36l-.21 2.73a26.53 26.53 0 0 0 3.84.33c5.66 0 7.9-2.83 7.9-6.31V19.34a16.06 16.06 0 0 0-5.27-.89Zm2 9.57H222c-2.65 0-3.79-1.24-3.79-3.53 0-2 1.11-3.41 3-3.41a6.15 6.15 0 0 1 2.4.45ZM82.78 40.22 81 45.61a14.77 14.77 0 0 0-.58 2.17 14.53 14.53 0 0 0-.57-2.2l-1.74-5.36H75.7l-1.61 10.43h2l.59-4.81c.12-.91.23-1.73.29-2.65a17.39 17.39 0 0 0 .67 2.62l1.59 4.84h2l1.65-5.24a20.5 20.5 0 0 0 .58-2.22c.08.72.17 1.5.32 2.48l.74 5h2.12l-1.53-10.45ZM89.26 39.59a1.2 1.2 0 1 0 0 2.39 1.23 1.23 0 0 0 1.24-1.2 1.21 1.21 0 0 0-1.24-1.19ZM88.27 42.97h1.98v7.68h-1.98zM96.77 42.8a2.79 2.79 0 0 0-2.61 1.55 8.12 8.12 0 0 0 .09-1.35h-1.87v7.68h2v-3.74c0-1.34.79-2.49 1.79-2.49.73 0 .94.48.94 1.29v4.91h2v-5.39c-.05-1.35-.61-2.46-2.34-2.46ZM101.2 42.97h1.98v7.68h-1.98zM102.19 39.59a1.2 1.2 0 1 0 0 2.39 1.23 1.23 0 0 0 1.24-1.2 1.21 1.21 0 0 0-1.24-1.19ZM106.92 45.09c0-.48.37-.79 1.14-.79a5.47 5.47 0 0 1 1.42.2l.06-1.56a8.41 8.41 0 0 0-1.4-.14c-2.17 0-3.26 1.11-3.26 2.46 0 2.61 3.1 1.84 3.1 3.2 0 .51-.49.81-1.25.81a6.44 6.44 0 0 1-1.65-.23v1.63a11.66 11.66 0 0 0 1.61.13c2.1 0 3.43-1 3.43-2.53-.05-2.49-3.2-1.93-3.2-3.18ZM114.07 40.08l-2 .53V43h-1.31v1.5h1.33v3.89c0 1.8.52 2.41 2.22 2.41a6.57 6.57 0 0 0 1.61-.2V49a3.65 3.65 0 0 1-1 .13c-.68 0-.91-.28-.91-1.27V44.5h1.87V43h-1.87ZM119.31 44.52a10.41 10.41 0 0 0 .13-1.55h-1.87v7.68h2v-3.14c0-2.13.71-3.06 2.13-2.76l.1-2a2.33 2.33 0 0 0-2.49 1.77ZM126.64 45.58c-.24.73-.57 1.75-.74 2.44a21.29 21.29 0 0 0-.61-2.11l-1-2.94h-2.19l2.82 7.68-.26.74c-.4 1.14-.83 1.44-1.48 1.44a3.39 3.39 0 0 1-1-.17l-.13 1.7a4.9 4.9 0 0 0 1.08.12c1.77 0 2.57-.72 3.48-3.12l3.06-8.36h-2.11ZM137.52 42.82a3.86 3.86 0 0 0-3.93 4.12c0 2.74 1.41 3.86 3.59 3.86a3.88 3.88 0 0 0 3.92-4.14c0-2.66-1.4-3.84-3.58-3.84Zm-.17 6.3c-1.15 0-1.72-.8-1.72-2.38s.87-2.25 1.75-2.25c1.16 0 1.68.8 1.68 2.28s-.74 2.35-1.71 2.35ZM143.09 42.35V43h-1.34v1.5h1.34v6.15h2V44.5h1.79V43h-1.79v-.65c0-1 .38-1.47 1.25-1.47a3.28 3.28 0 0 1 1 .14l.13-1.62a5.76 5.76 0 0 0-1.25-.12c-2.17-.03-3.13.99-3.13 3.07ZM151.54 40.22h2.01v10.43h-2.01zM160.09 42.8a2.8 2.8 0 0 0-2.62 1.55 8.12 8.12 0 0 0 .11-1.36h-1.88v7.68h2v-3.73c0-1.34.78-2.49 1.79-2.49.72 0 .94.48.94 1.29v4.91h2v-5.39c-.06-1.35-.61-2.46-2.34-2.46ZM167.89 46.49c-.19.53-.34 1.12-.47 1.64-.14-.55-.32-1.17-.51-1.7L165.66 43h-2.16l2.84 7.68h2l2.88-7.68h-2.1ZM175.39 42.8c-2.3 0-3.6 1.73-3.6 4.08 0 2.7 1.36 3.92 3.8 3.92a7.68 7.68 0 0 0 2.75-.49l-.18-1.53a5.46 5.46 0 0 1-2.24.48 1.87 1.87 0 0 1-2.12-2.13h4.76a6 6 0 0 0 .06-.9c0-1.9-.99-3.43-3.23-3.43Zm-1.56 3a1.54 1.54 0 0 1 1.5-1.53 1.31 1.31 0 0 1 1.33 1.53ZM181.88 45.09c0-.48.37-.79 1.14-.79a5.61 5.61 0 0 1 1.43.2l.06-1.56a8.63 8.63 0 0 0-1.41-.14c-2.16 0-3.26 1.11-3.26 2.46 0 2.61 3.11 1.84 3.11 3.2 0 .51-.5.81-1.25.81A6.52 6.52 0 0 1 180 49v1.63a11.52 11.52 0 0 0 1.6.13c2.1 0 3.43-1 3.43-2.53-.03-2.45-3.15-1.89-3.15-3.14ZM189 40.08l-2 .53V43h-1.32v1.5h1.33v3.89c0 1.8.53 2.41 2.23 2.41a6.43 6.43 0 0 0 1.6-.2V49a3.65 3.65 0 0 1-1 .13c-.67 0-.91-.28-.91-1.27V44.5h1.87V43H189ZM201.45 42.8a2.73 2.73 0 0 0-2.5 1.55 2 2 0 0 0-2.12-1.55 2.74 2.74 0 0 0-2.53 1.55 8.79 8.79 0 0 0 .11-1.38h-1.87v7.68h2V47c0-1.43.85-2.52 1.76-2.52.75 0 .91.58.91 1.33v4.87h2V47c0-1.5.89-2.52 1.76-2.52.72 0 .91.51.91 1.33v4.87h2v-5.31c-.12-1.75-.94-2.57-2.43-2.57ZM208.94 42.8c-2.3 0-3.6 1.73-3.6 4.08 0 2.7 1.36 3.92 3.81 3.92a7.76 7.76 0 0 0 2.75-.49l-.19-1.53a5.46 5.46 0 0 1-2.24.48 1.87 1.87 0 0 1-2.12-2.13h4.76a6 6 0 0 0 .06-.9c0-1.9-.98-3.43-3.23-3.43Zm-1.56 3a1.54 1.54 0 0 1 1.5-1.53 1.31 1.31 0 0 1 1.33 1.53ZM218.21 42.8a2.8 2.8 0 0 0-2.61 1.55 9.28 9.28 0 0 0 .1-1.36h-1.86v7.68h2v-3.73c0-1.34.79-2.49 1.8-2.49.72 0 .94.48.94 1.29v4.91h2v-5.39c-.08-1.35-.64-2.46-2.37-2.46ZM225 40.08l-2 .53V43h-1.32v1.5H223v3.89c0 1.8.53 2.41 2.23 2.41a6.43 6.43 0 0 0 1.6-.2V49a3.65 3.65 0 0 1-1 .13c-.67 0-.91-.28-.91-1.27V44.5h1.87V43H225ZM23.54 16.48a6.25 6.25 0 0 0-4.34 6.76c.23-.71 1.83-3.92 4.89-4.67a9.16 9.16 0 0 0-2.45 7.88c.11-.56 1.09-5 4.48-6-2.11 2.77-1.26 6.36-1 7.13 0-1.38 1.39-3.79 2.25-4.88.87 1.79.74 5.23.74 5.23h-.64l.59 4.07h-.51l.45 4.1h-.41l.52 5.2-1.83 1v.24h5.14v-.24l-1.83-1 .53-5.2h-.42l.51-4.1h-.5l.62-4h-.64s-.12-3.44.75-5.23c.85 1.09 2.25 3.5 2.25 4.88.22-.77 1.07-4.36-1-7.13 3.39.94 4.37 5.41 4.48 6a9.16 9.16 0 0 0-2.45-7.88c3.06.75 4.66 4 4.89 4.67a6.26 6.26 0 0 0-4.34-6.76 6.55 6.55 0 0 1 .7-.06 10.72 10.72 0 0 1 4 1s-1.13-2.91-5.57-2.91H33s.16-1.11 2.17-1.11a6.94 6.94 0 0 1 1.22.11 4.61 4.61 0 0 0-2.9-1.07 5 5 0 0 0-3.49 1.8c-.87-.64.2-1.69.65-2a.87.87 0 0 0-.44-.11 1.08 1.08 0 0 0-.73.32 1.2 1.2 0 0 1 .68-1.2 1.67 1.67 0 0 0-1.25.69 1.67 1.67 0 0 0-1.24-.69 1.2 1.2 0 0 1 .67 1.2 1.06 1.06 0 0 0-.73-.32.81.81 0 0 0-.43.11c.45.29 1.52 1.34.64 2a5 5 0 0 0-3.54-1.83 4.65 4.65 0 0 0-2.9 1.07 7.09 7.09 0 0 1 1.22-.11c2 0 2.17 1.11 2.17 1.11h-.32c-4.43 0-5.57 2.91-5.57 2.91a10.82 10.82 0 0 1 4-1 6.85 6.85 0 0 1 .7.06m20.35 22.67c-5.88 0-15 6-15 6s-9.16-6-15-6c-3.17 0-4.77 1.09-5.27 1.55a8.51 8.51 0 0 1 3.06-.44 18.3 18.3 0 0 1 7 1.74c4.64 2.21 8.28 4.4 8.28 4.4l-4.53 2.87s-1.54-1.84-2.9-1.84c-.88 0-1 .52-1 .75a.69.69 0 0 0 .72.7c.58 0 .6-.4.6-.53.08 0 .14 0 .21.12s1 1.52 1 1.52-2.88 1.6-3.08 1.6-.44-.35-.71-.35a.26.26 0 0 0-.28.29A2.17 2.17 0 0 0 18.6 53a3 3 0 0 0 .95-.08 28.31 28.31 0 0 0 2.61-1.18s1 1.24 1.68 1.24h.35a3.86 3.86 0 0 0 .74-.09 2 2 0 0 0 .92.38.77.77 0 0 0 .85-.7.72.72 0 0 0-.73-.77.62.62 0 0 0-.63.52h-.18l-1.41-1.48 5.13-3.15L34 50.81l-1.4 1.48h-.18a.62.62 0 0 0-.63-.52.72.72 0 0 0-.73.77.76.76 0 0 0 .84.7 2.09 2.09 0 0 0 .93-.38 3.86 3.86 0 0 0 .74.09h.34c.7 0 1.69-1.24 1.69-1.24a26.54 26.54 0 0 0 2.6 1.18 3.05 3.05 0 0 0 .95.08 2.15 2.15 0 0 0 1.7-1.36.26.26 0 0 0-.27-.29c-.28 0-.56.35-.71.35s-3.08-1.6-3.08-1.6l1-1.52c.08-.1.14-.09.21-.12 0 .13 0 .53.61.53a.68.68 0 0 0 .71-.7c0-.23-.15-.75-1-.75-1.36 0-2.9 1.84-2.9 1.84l-4.54-2.87h.05s3.64-2.19 8.27-4.4a18.35 18.35 0 0 1 7-1.74 8.51 8.51 0 0 1 3.06.44c-.5-.46-2.1-1.55-5.28-1.55" style="fill:#fff"/><path d="M57.77 64.58H0V0h57.77ZM3.28 61.3h51.21v-58H3.28Z" style="fill:#fff"/></g></g></svg>