<svg xmlns="http://www.w3.org/2000/svg" viewBox="0 0 145.47 201.83"><g data-name="Layer 2"><g data-name="Layer 1"><path d="M96.73 132.81a79.38 79.38 0 0 0-10.57-9.43c-2.38 2.73-4.76 5.82-7.14 9 3.53 3 7 5.82 10.4 9.08a35.29 35.29 0 0 0 7.31-8.64M57.18 54.74a78.68 78.68 0 0 0-10.57-9.43c-2.38 2.73-4.76 5.81-7.14 9 3.53 3 7 5.82 10.4 9.08a35.48 35.48 0 0 0 7.31-8.64M89.42 160.64a35.48 35.48 0 0 0 7.31-8.64 79.48 79.48 0 0 0-10.57-9.44c-2.38 2.74-4.76 5.82-7.14 9 3.53 3 7 5.82 10.4 9.08" style="fill:#90c364"/><path d="M27 13.44C29.49 10.86 17.71-1.78 15.8.21-1.63 18.29-1.83 43 2 66.35c4.26 26 13.27 51.44 13.53 78 0 3.3 3.58 6.94 5.73 9.13.49.49 6 5.35 6 2.88C27 131.05 19 106.68 14.36 82 9.92 58.07 9 32.18 27 13.44" style="fill:#026573"/><path d="M144.76 110.77a34 34 0 0 0-5.34-12 32.58 32.58 0 0 0-8.35-8.25c-3-2-7.45-4.93-11.25-4.18a2.67 2.67 0 0 0-2.27 1.86 4.49 4.49 0 0 0 .51 3.07 5.06 5.06 0 0 0-3.47.6 7.13 7.13 0 0 0-2 3.65 19.78 19.78 0 0 0-.7 3.87l-.09.51-.12.77c-.06.36-.07.4-.07.4 0 .25 0 .51-.07.77-.08.91-.11 1.81-.11 2.72a39 39 0 0 1-.42 6.29c0 .11-.11.19-.14.3a36.25 36.25 0 0 1-.6 1.28 4.6 4.6 0 0 1-1.18 1.27 4 4 0 0 1-1.75.34 5.33 5.33 0 0 1-5.25-3.78c-.83-2.26-1.14-5.63-.94-10.13a82.19 82.19 0 0 1 2.48-15.58c1.44-5.89 1.94-9.53 4.56-15.76 1.43-3.38 2.34-5.66 2.75-6.86a4.37 4.37 0 0 0 .25-2.79q-.3-.81-3.24-3c-2-1.44-3.35-2-4.17-1.71a4.66 4.66 0 0 0-1.95 1.57 20.06 20.06 0 0 0-2 3c-.7 1.26-1.64 3-2.83 5.17A42.72 42.72 0 0 1 94.89 68a58.46 58.46 0 0 0-3.2 6c-1.21 2.57-3 6.62-5.44 12.12s-4.72 10.85-6.94 16Q81.5 90.38 82.73 83t1.61-12q.38-4.57-.13-6a7.06 7.06 0 0 0-2.76-3.45A3.93 3.93 0 0 0 77.8 61q-1.2.44-3.79 3.75a64.58 64.58 0 0 0-5.26 8 67.22 67.22 0 0 0-4.45 9.4Q63 85.6 61.71 89t-2.51 6.91c-.83 2.36-1.67 4.91-2.55 7.65q.74-7.74 1.24-12.9t.53-8.94a18.17 18.17 0 0 0-.87-6.2 13.14 13.14 0 0 0-1.95-2.72 19.43 19.43 0 0 0-3.55-3.4c-1.23-.9-2.29-1.19-3.18-.86q-2.67 1-8.55 6.25a117.85 117.85 0 0 0-12.68 13.73 4.74 4.74 0 0 1 .36-2.63 33.19 33.19 0 0 1 2-3.65 1.1 1.1 0 0 0 .17-.71c-.08-.22-.25-.28-.5-.19s-1.42 1.71-3.4 4.82S23.2 91.59 23 93.1a23.86 23.86 0 0 0 .49 5.59 35.76 35.76 0 0 0 1 4.84c.42 1.18 1.17 1.58 2.22 1.19s2.57-1.62 4.39-3.65 4.18-4.85 7.08-8.47 5.34-6.55 7.31-8.76S49 80.35 50 80c1.24-.46 2.11 0 2.61 1.36a16 16 0 0 1 .54 5.9 77.42 77.42 0 0 1-1.39 10.34q-1.21 6.42-3.11 13.78c-1.26 4.9-9.36 34.22-11.5 41.36a3 3 0 0 0 0 1.78 17.08 17.08 0 0 0 3.56 5.21c1.84 2 3.32 2.82 4.43 2.41a3.28 3.28 0 0 0 1.86-2.38q.55-1.87 1.6-7.13c2.26-10.33 11.08-42.87 13.65-51a148.64 148.64 0 0 1 7.08-18.93q3.22-6.67 5-7.35c.58-.21 1 .18 1.4 1.17a9.92 9.92 0 0 1 .39 4.35c-.12 1.73-.46 4.13-1.03 7.19q-1.2 6.61-2.46 11.41t-3.3 11.85c-.23.8-.37 1.24-.47 1.55a8.69 8.69 0 0 0 .27 4.14 17.89 17.89 0 0 0 3.09 5.39c1.31 1.55 2.41 2.17 3.3 1.84a3.08 3.08 0 0 0 1.48-1.67 48.87 48.87 0 0 0 2-5.64q1.33-4.25 1.6-5c3-9.23 4-8.92 7-15.9a177 177 0 0 1 7.66-16.18q3.19-5.73 4.1-6.06a.77.77 0 0 1 .61 0 .84.84 0 0 1 .46.48c.13.38-.57 2.59-2.12 6.62q-3.11 8.18-4.85 14.48a52.28 52.28 0 0 0-2 11.68 28.18 28.18 0 0 0 1.47 9.95 9.35 9.35 0 0 0 4.12 5 13.66 13.66 0 0 0 5 1.89 23 23 0 0 0 6.41.25c3.75-.49 3.52-.2 7.12-1.4.22-.08.45-.16.67-.26a23.57 23.57 0 0 0 7.3 8.07c3.66 2.45 9.52 4.21 13.83 2.49 7.87-3.2 9.17-13.72 7.38-22.27Zm-7 8.41a5.44 5.44 0 0 1-.51 1.06c-1.19 1.94-2.18 3.11-4.59 3.14a13.13 13.13 0 0 1-6.27-1.73 24.14 24.14 0 0 1-6.68-6.53 15.15 15.15 0 0 0 2.47-4.68 20.06 20.06 0 0 0 .76-7.54 61.23 61.23 0 0 0-1.69-9.62c3.94 1.63 8.78 5.15 10.49 7.31a30.33 30.33 0 0 1 5.5 10.48c.76 2.41 1.44 5.6.54 8.11ZM20.29 181.05a.77.77 0 0 0-.38.41l-7.07 12.82a6.13 6.13 0 0 0-.35.73c-.11.26-.21.52-.31.78-.09-.26-.2-.52-.31-.77s-.23-.49-.34-.73l-7.2-12.83a.87.87 0 0 0-.4-.41 1.71 1.71 0 0 0-.58-.07H1.27v20.85h2.48v-15.32a12.46 12.46 0 0 0-.09-1.43l7.3 13.1a1.07 1.07 0 0 0 1 .65h.41a1.09 1.09 0 0 0 1-.65l7.15-13v16.69H23V181h-2.12a1.86 1.86 0 0 0-.59.07M52.72 180.98h2.82v20.85h-2.82zM84 183.28h11.52L83.69 199.9a3.55 3.55 0 0 0-.2.39 1.23 1.23 0 0 0-.08.44v1.1H99v-2.3H87.12L98.92 183a1.64 1.64 0 0 0 .29-.93V181H84ZM135.87 181H133l-8.34 20.85h2.19a1 1 0 0 0 .61-.2 1.07 1.07 0 0 0 .33-.47l1.95-5h9.35l1.95 5a1.22 1.22 0 0 0 .35.48.91.91 0 0 0 .61.19h2.18Zm-5.33 13.11 3.28-8.47a15.91 15.91 0 0 0 .62-2c.1.37.2.73.31 1.06s.21.64.3.89l3.28 8.48Z" style="fill:#026573"/></g></g></svg>