<svg xmlns="http://www.w3.org/2000/svg" viewBox="0 0 165.64 229.73"><g data-name="Layer 2"><g data-name="Layer 1"><path d="M30.74 15.3C33.58 12.36 20.17-2 18 .24-1.86 20.82-2.08 48.88 2.3 75.52c4.85 29.58 15.11 58.55 15.41 88.75 0 3.75 4.07 7.9 6.52 10.39.56.56 6.82 6.09 6.79 3.28-.28-28.78-9.44-56.51-14.67-84.58-5.06-27.26-6.16-56.73 14.39-78.06M110.15 151.17a91.07 91.07 0 0 0-12-10.74c-2.71 3.11-5.43 6.63-8.13 10.24 4 3.41 7.93 6.62 11.84 10.33a40.7 40.7 0 0 0 8.33-9.83M65.11 62.31a89.74 89.74 0 0 0-12-10.74c-2.71 3.11-5.42 6.62-8.13 10.24 4 3.41 7.93 6.62 11.85 10.33a40.43 40.43 0 0 0 8.32-9.83M101.82 182.84a40.7 40.7 0 0 0 8.33-9.83 90.36 90.36 0 0 0-12-10.74c-2.71 3.11-5.43 6.62-8.13 10.23 4 3.42 7.93 6.63 11.84 10.34" style="fill:#fff"/><path d="M164.83 126.08a38.78 38.78 0 0 0-6.08-13.68 37.35 37.35 0 0 0-9.5-9.39c-3.41-2.33-8.49-5.61-12.81-4.76a3 3 0 0 0-2.59 2.12 5.12 5.12 0 0 0 .58 3.49 5.8 5.8 0 0 0-4 .69c-.87.62-1.63 2-2.29 4.15a22.24 22.24 0 0 0-.8 4.41c0 .2-.06.4-.1.59s-.1.59-.14.88-.07.45-.07.44c0 .29-.06.59-.09.88-.09 1-.12 2.07-.12 3.1a45.19 45.19 0 0 1-.48 7.16c0 .13-.12.21-.16.34a4.67 4.67 0 0 1-.37.82 4.1 4.1 0 0 1-.31.63 5 5 0 0 1-1.35 1.45 4.6 4.6 0 0 1-2 .4 6.08 6.08 0 0 1-6-4.31q-1.41-3.86-1.06-11.53A93.49 93.49 0 0 1 118 96.22c1.64-6.71 2.22-10.85 5.19-17.94q2.45-5.77 3.14-7.81a5 5 0 0 0 .28-3.18c-.23-.62-1.45-1.75-3.68-3.4s-3.82-2.29-4.76-1.94a5.21 5.21 0 0 0-2.17 1.73 23.34 23.34 0 0 0-2.24 3.47c-.78 1.44-1.86 3.4-3.22 5.89a45.64 45.64 0 0 1-2.54 4.37 68.09 68.09 0 0 0-3.63 6.88q-2.09 4.39-6.2 13.8t-7.9 18.25Q92.8 103 94.2 94.57T96 81q.43-5.2-.15-6.78a8 8 0 0 0-3.14-3.93 4.44 4.44 0 0 0-4.15-.84q-1.36.5-4.32 4.27a73.69 73.69 0 0 0-6 9.1 76.12 76.12 0 0 0-5.06 10.7c-1 2.63-2 5.23-3 7.8s-1.92 5.2-2.86 7.89-1.91 5.59-2.9 8.71q.83-8.8 1.41-14.69T66.52 93a20.3 20.3 0 0 0-1-7.06 15.71 15.71 0 0 0-2.22-3.1 22.44 22.44 0 0 0-4-3.87c-1.41-1-2.61-1.35-3.63-1q-3 1.11-9.73 7.12a132.27 132.27 0 0 0-14.43 15.63 5.26 5.26 0 0 1 .44-3 36.87 36.87 0 0 1 2.23-4.15c.18-.39.25-.66.19-.81s-.28-.32-.57-.21-1.61 1.94-3.87 5.48-3.49 6.17-3.72 7.9a26.94 26.94 0 0 0 .56 6.36 40.83 40.83 0 0 0 1.16 5.52c.49 1.34 1.34 1.78 2.53 1.35s2.93-1.85 5-4.16 4.77-5.51 8.07-9.64 6.08-7.46 8.32-10 3.94-4 5.1-4.4c1.41-.51 2.4 0 3 1.56a18 18 0 0 1 .62 6.7 87.5 87.5 0 0 1-1.58 11.8q-1.36 7.3-3.53 15.68c-1.44 5.58-10.66 39-13.1 47.08a3.55 3.55 0 0 0 0 2 19.55 19.55 0 0 0 4.06 5.93q3.15 3.44 5 2.74a3.72 3.72 0 0 0 2.15-2.7q.63-2.15 1.82-8.13C58 162 68 124.93 70.93 115.64A169.93 169.93 0 0 1 79 94.1q3.67-7.6 5.74-8.36c.65-.24 1.18.2 1.6 1.32a11.34 11.34 0 0 1 .43 5q-.29 3-1.26 8.23-1.35 7.53-2.8 13t-3.76 13.49c-.26.91-.42 1.41-.54 1.76a9.77 9.77 0 0 0 .32 4.72 20.28 20.28 0 0 0 3.52 6.13q2.23 2.61 3.75 2.02a3.47 3.47 0 0 0 1.64-1.89 54.53 54.53 0 0 0 2.29-6.42q1.51-4.84 1.82-5.69c3.45-10.51 4.58-10.16 8-18.1a201.22 201.22 0 0 1 8.72-18.43q3.64-6.51 4.68-6.89a.89.89 0 0 1 .69.05 1 1 0 0 1 .52.55q.23.66-2.41 7.54-3.54 9.32-5.52 16.48a58.37 58.37 0 0 0-2.23 13.29 32 32 0 0 0 1.66 11.29 10.61 10.61 0 0 0 4.68 5.62 15.5 15.5 0 0 0 5.64 2.16 25.92 25.92 0 0 0 7.3.28c4.27-.56 4-.22 8.11-1.59.25-.09.51-.18.76-.29a26.76 26.76 0 0 0 8.32 9.18c4.16 2.79 10.83 4.8 15.74 2.84 8.98-3.6 10.46-15.58 8.42-25.31Zm-8 9.57a6.69 6.69 0 0 1-.57 1.21c-1.36 2.21-2.49 3.54-5.23 3.57a15 15 0 0 1-7.14-2c-1.62-1-4.33-3-7.6-7.44a17.5 17.5 0 0 0 2.81-5.33 23 23 0 0 0 .86-8.58 69.3 69.3 0 0 0-1.92-11c4.48 1.86 10 5.87 11.94 8.32a34.6 34.6 0 0 1 6.26 11.93c.92 2.83 1.67 6.47.64 9.32ZM23.11 206.08a.83.83 0 0 0-.44.46l-8.05 14.59a8.09 8.09 0 0 0-.4.84c-.12.29-.24.59-.35.89-.11-.3-.23-.59-.35-.88s-.26-.57-.39-.83l-8.2-14.61a.94.94 0 0 0-.45-.46 1.94 1.94 0 0 0-.66-.08H1.45v23.73h2.82v-17.44a16 16 0 0 0-.1-1.62l8.31 14.9a1.23 1.23 0 0 0 1.16.75h.47a1.22 1.22 0 0 0 1.15-.75l8.15-14.84q0 .42-.06.81v18.19h2.81V206h-2.38a2 2 0 0 0-.67.08M60.03 206h3.21v23.73h-3.21zM95.61 208.61h13.15l-13.47 18.92a3.61 3.61 0 0 0-.22.44 1.39 1.39 0 0 0-.09.5v1.26h17.79v-2.62H99.2l13.44-18.86a2 2 0 0 0 .33-1.06V206H95.61ZM154.71 206h-3.25L142 229.73h2.49a1.08 1.08 0 0 0 .69-.23 1.12 1.12 0 0 0 .38-.53l2.22-5.73h10.62l2.22 5.73a1.34 1.34 0 0 0 .39.54 1.07 1.07 0 0 0 .7.22h2.49Zm-6.06 14.93 3.72-9.64a18.24 18.24 0 0 0 .71-2.24c.11.43.23.84.35 1.22s.24.72.35 1l3.72 9.66Z" style="fill:#fff"/></g></g></svg>