<svg xmlns="http://www.w3.org/2000/svg" xmlns:xlink="http://www.w3.org/1999/xlink" viewBox="0 0 135.44 296.65"><defs><linearGradient id="a" x2="43.86" y1="169.8" y2="169.8" gradientUnits="userSpaceOnUse"><stop offset=".01" stop-opacity=".2"/><stop offset="1"/></linearGradient><linearGradient xlink:href="#a" id="b" x1="2728.03" x2="2771.9" y1="169.8" y2="169.8" gradientTransform="matrix(1 0 0 -1 -2636.46 339.61)"/></defs><g data-name="Layer 2"><g data-name="Layer 1"><path d="M43.86 0h47.71v296.42H43.86z" style="fill:#90c363"/><path d="M91.57 43.19h43.86v253.24H91.57z" style="fill:#7ead50"/><path d="M0 43.19h43.86v253.24H0z" style="fill:#6d9b37"/><path d="M0 43.19h43.86v253.24H0z" style="opacity:.13;fill:url(#a)"/><path d="M21.93 105.59h43.86v191.06H21.93z" style="fill:#7ead50"/><path d="M91.57 43.19h43.86v253.24H91.57z" style="opacity:.13;fill:url(#b)" transform="rotate(-180 113.505 169.805)"/><path d="M68.22 96.4a11.72 11.72 0 1 1 11.71-11.71A11.72 11.72 0 0 1 68.22 96.4Zm0-21.9a10.19 10.19 0 1 0 10.19 10.19A10.2 10.2 0 0 0 68.22 74.5Z" style="fill:#fff;stroke:#fff;stroke-miterlimit:10;stroke-width:4.04079170409099px"/><path d="M87.45 115.63a.76.76 0 0 1-.76-.76 18.47 18.47 0 0 0-36.94 0 .76.76 0 0 1-.76.76.77.77 0 0 1-.77-.76 20 20 0 0 1 40 0 .76.76 0 0 1-.77.76ZM80.19 129.66h-.06a.76.76 0 0 1-.7-.82 6.71 6.71 0 0 0-6.24-7.31l-13.73-.93a31.39 31.39 0 0 0-19.84 5.46l-.12.09a.77.77 0 0 1-.87-1.26l.13-.08a32.81 32.81 0 0 1 20.8-5.73l13.73.93A8.24 8.24 0 0 1 81 129a.76.76 0 0 1-.81.66Z" style="fill:#fff;stroke:#fff;stroke-miterlimit:10;stroke-width:4.04079170409099px"/><path d="M73.9 145.93h-.41l-34.44-.87a.77.77 0 0 1 0-1.53l34.44.88a14.68 14.68 0 0 0 9.58-3.25L104.36 124a4.46 4.46 0 0 0-5.36-7.13l-18.38 12.65a.71.71 0 0 1-.43.14h-9.31a.77.77 0 0 1-.76-.77.76.76 0 0 1 .76-.76H80l18.21-12.52a6 6 0 0 1 7.15 9.59l-21.29 17.14a16.18 16.18 0 0 1-10.17 3.59Z" style="fill:#fff;stroke:#fff;stroke-miterlimit:10;stroke-width:4.04079170409099px"/><path d="M39.07 149.36h-9.31a.76.76 0 0 1-.76-.76v-26.22a.76.76 0 0 1 .76-.76h9.31a.76.76 0 0 1 .76.76v26.22a.76.76 0 0 1-.76.76Zm-8.55-1.52h7.79v-24.7h-7.79Z" style="fill:#fff;stroke:#fff;stroke-miterlimit:10;stroke-width:4.04079170409099px"/></g></g></svg>