<svg xmlns="http://www.w3.org/2000/svg" xmlns:xlink="http://www.w3.org/1999/xlink" viewBox="0 0 135.44 296.65"><defs><linearGradient id="a" x2="43.86" y1="169.8" y2="169.8" gradientUnits="userSpaceOnUse"><stop offset=".01" stop-opacity=".2"/><stop offset="1"/></linearGradient><linearGradient xlink:href="#a" id="b" x1="994.57" x2="1038.44" y1="169.8" y2="169.8" gradientTransform="matrix(1 0 0 -1 -903 339.61)"/></defs><g data-name="Layer 2"><g data-name="Layer 1"><path d="M43.86 0h47.71v296.42H43.86z" style="fill:#90c363"/><path d="M91.57 43.19h43.86v253.24H91.57z" style="fill:#7ead50"/><path d="M0 43.19h43.86v253.24H0z" style="fill:#6d9b37"/><path d="M0 43.19h43.86v253.24H0z" style="opacity:.13;fill:url(#a)"/><path d="M21.93 105.59h43.86v191.06H21.93z" style="fill:#7ead50"/><path d="M91.57 43.19h43.86v253.24H91.57z" style="opacity:.13;fill:url(#b)" transform="rotate(-180 113.505 169.805)"/><path d="M68.58 143.58a34.74 34.74 0 0 1-6.6-.64 33.74 33.74 0 0 1-20.84-52.71.62.62 0 1 1 1 .72 32.49 32.49 0 1 0 26.44-13.58 33.35 33.35 0 0 0-4.79.35.62.62 0 1 1-.18-1.23 34.42 34.42 0 0 1 5-.37 33.73 33.73 0 0 1 0 67.46Z" style="fill:#fff;stroke:#fff;stroke-miterlimit:10;stroke-width:1.98452959490011px"/><path d="M68.58 143.58A.62.62 0 0 1 68 143V76.74a.62.62 0 0 1 .62-.62.62.62 0 0 1 .62.62V143a.62.62 0 0 1-.66.58Z" style="fill:#fff;stroke:#fff;stroke-miterlimit:10;stroke-width:1.98452959490011px"/><path d="M101.69 110.48H35.47a.63.63 0 0 1 0-1.25h66.22a.63.63 0 0 1 0 1.25ZM68.58 97A44.57 44.57 0 0 1 58 95.67a.62.62 0 0 1 .3-1.21 43.22 43.22 0 0 0 27.56-2.36 42.25 42.25 0 0 0 7.27-4.1v-.3h.63a.63.63 0 0 1 .62.63v.32l-.27.19A44.15 44.15 0 0 1 68.58 97ZM43.41 132a.62.62 0 0 1-.51-.26.63.63 0 0 1 .15-.87 44.72 44.72 0 0 1 7.58-4.31 44.43 44.43 0 0 1 35.73-.08 44.61 44.61 0 0 1 7.76 4.39.63.63 0 0 1 .15.87.63.63 0 0 1-.87.15 42.93 42.93 0 0 0-49.63 0 .69.69 0 0 1-.36.11Z" style="fill:#fff;stroke:#fff;stroke-miterlimit:10;stroke-width:1.98452959490011px"/><path d="M61.7 142.79a43.88 43.88 0 0 1-11.39-15.43 43.18 43.18 0 0 1-3.66-17.51 44 44 0 0 1 .74-8 .62.62 0 0 1 1.23.22 42.54 42.54 0 0 0-.73 7.82 42 42 0 0 0 3.56 17 42.7 42.7 0 0 0 11.06 15l-.49.52Zm.34-.4.07-.06ZM75 143h-.24a.62.62 0 0 1-.62-.62.64.64 0 0 1 .25-.5 42.58 42.58 0 0 0 11.13-15.09 42.5 42.5 0 0 0 0-33.87A42.68 42.68 0 0 0 74.38 77.8a.62.62 0 1 1 .81-1 43.87 43.87 0 0 1 11.49 15.62 43.66 43.66 0 0 1 0 34.86 43.78 43.78 0 0 1-11.49 15.57Z" style="fill:#fff;stroke:#fff;stroke-miterlimit:10;stroke-width:1.98452959490011px"/><path d="M51.13 106.21A2.42 2.42 0 0 1 49 105l-9.58-17.12a13.71 13.71 0 1 1 23.43 0L53.28 105a2.44 2.44 0 0 1-2.15 1.21Zm0-37.91h-.68a12.49 12.49 0 0 0-11.79 12.3 12.36 12.36 0 0 0 1.82 6.63l9.58 17.08a1.18 1.18 0 0 0 1.05.62 1.2 1.2 0 0 0 1.06-.62l9.59-17.1A12.46 12.46 0 0 0 51.14 68.3Z" style="fill:#fff;stroke:#fff;stroke-miterlimit:10;stroke-width:1.98452959490011px"/><path d="M51.13 88.21A7.82 7.82 0 1 1 59 80.39a7.83 7.83 0 0 1-7.87 7.82Zm0-14.39a6.57 6.57 0 1 0 6.57 6.57 6.58 6.58 0 0 0-6.57-6.57Z" style="fill:#fff;stroke:#fff;stroke-miterlimit:10;stroke-width:1.98452959490011px"/></g></g></svg>