<svg xmlns="http://www.w3.org/2000/svg" xmlns:xlink="http://www.w3.org/1999/xlink" viewBox="0 0 135.44 296.65"><defs><linearGradient id="a" x2="43.86" y1="169.8" y2="169.8" gradientUnits="userSpaceOnUse"><stop offset=".01" stop-opacity=".2"/><stop offset="1"/></linearGradient><linearGradient xlink:href="#a" id="b" x1="2728.03" x2="2771.9" y1="169.8" y2="169.8" gradientTransform="matrix(1 0 0 -1 -2636.46 339.61)"/></defs><g data-name="Layer 2"><g data-name="Layer 1"><path d="M43.86 0h47.71v296.42H43.86z" style="fill:#90c363"/><path d="M91.57 43.19h43.86v253.24H91.57z" style="fill:#7ead50"/><path d="M0 43.19h43.86v253.24H0z" style="fill:#6d9b37"/><path d="M0 43.19h43.86v253.24H0z" style="opacity:.13;fill:url(#a)"/><path d="M21.93 105.59h43.86v191.06H21.93z" style="fill:#7ead50"/><path d="M91.57 43.19h43.86v253.24H91.57z" style="opacity:.13;fill:url(#b)" transform="rotate(-180 113.505 169.805)"/><path d="M22.7 76.26v65.03h88.24" style="fill:none;stroke:#fff;stroke-linecap:round;stroke-miterlimit:10;stroke-width:4px"/><path d="M32.9 126.23h5.92v8.35H32.9zM45.64 122.26h5.92v12.32h-5.92zM58.39 116.18h5.92v18.4h-5.92zM71.13 107.98h5.92v26.6h-5.92zM83.88 96.67h5.92v37.91h-5.92zM96.68 83.21h5.92v51.37h-5.92zM32.9 117.28c34.2-10.9 55.64-40.44 55.64-40.44" style="fill:none;stroke:#fff;stroke-linecap:round;stroke-miterlimit:10;stroke-width:4px"/><path d="m77.62 79.48 10.92-2.64-.07 11.37" style="fill:none;stroke:#fff;stroke-linecap:round;stroke-miterlimit:10;stroke-width:4px"/></g></g></svg>