<svg xmlns="http://www.w3.org/2000/svg" xmlns:xlink="http://www.w3.org/1999/xlink" viewBox="0 0 135.44 296.65"><defs><linearGradient id="a" x2="43.86" y1="169.8" y2="169.8" gradientUnits="userSpaceOnUse"><stop offset=".01" stop-opacity=".2"/><stop offset="1"/></linearGradient><linearGradient xlink:href="#a" id="b" x1="994.57" x2="1038.44" y1="169.8" y2="169.8" gradientTransform="matrix(1 0 0 -1 -903 339.61)"/></defs><g data-name="Layer 2"><g data-name="Layer 1"><path d="M43.86 0h47.71v296.42H43.86z" style="fill:#90c363"/><path d="M91.57 43.19h43.86v253.24H91.57z" style="fill:#7ead50"/><path d="M0 43.19h43.86v253.24H0z" style="fill:#6d9b37"/><path d="M0 43.19h43.86v253.24H0z" style="opacity:.13;fill:url(#a)"/><path d="M21.93 105.59h43.86v191.06H21.93z" style="fill:#7ead50"/><path d="M91.57 43.19h43.86v253.24H91.57z" style="opacity:.13;fill:url(#b)" transform="rotate(-180 113.505 169.805)"/><path d="M30.17 135.52a1.74 1.74 0 0 1-.45-.06l-14-3.71a1.74 1.74 0 0 1-1.05-.81 1.7 1.7 0 0 1-.18-1.32l8.76-32.15a1.73 1.73 0 0 1 2.13-1.22l14 3.74a1.73 1.73 0 0 1 1.23 2.13l-8.72 32.12a1.74 1.74 0 0 1-1.72 1.28Zm-11.88-6.68 10.65 2.82 7.81-28.77-10.61-2.84Z" style="fill:#fff"/><path d="M36.46 133.63a11.15 11.15 0 0 1-3.46-.53l-2.54-.8a1.74 1.74 0 0 1-1.16-2.11l6.9-25.41a1.75 1.75 0 0 1 .82-1.06 1.7 1.7 0 0 1 1.32-.16l3.78 1a11.34 11.34 0 0 0 6.35-.08l9.08-2.78a11.54 11.54 0 0 1 11.16 2.54l11.89 10.93a5.66 5.66 0 0 1-6.88 8.93l-6.89-4.41a5.53 5.53 0 0 0-6 0l-18.09 12a11.3 11.3 0 0 1-6.28 1.94Zm-3.33-4.14 1 .3a7.75 7.75 0 0 0 6.68-.94l18.09-12a9 9 0 0 1 9.84-.08l6.89 4.42a2.17 2.17 0 0 0 1.79.25 2.13 2.13 0 0 0 1.37-1.18 2.17 2.17 0 0 0-.5-2.52l-11.89-10.9a8.09 8.09 0 0 0-7.8-1.77l-9.07 2.78a14.8 14.8 0 0 1-8.29.11l-2.1-.59Z" style="fill:#fff"/><path d="M101.05 135.43a1.74 1.74 0 0 1-.74-3.31l7-3.26-8.34-20.7-5.08.75a13.53 13.53 0 0 1-6.55-.67l-13.41-4.88a4.44 4.44 0 0 0-3.15 0l-5.1 2.06a1.74 1.74 0 0 1-2.26-1 1.72 1.72 0 0 1 1-2.25l5.11-2.06a7.81 7.81 0 0 1 5.63-.09L88.49 105a10 10 0 0 0 4.86.49l6.43-1a1.74 1.74 0 0 1 1.86 1.07l9.47 23.5a1.73 1.73 0 0 1-.88 2.22l-8.45 4a1.72 1.72 0 0 1-.73.15Z" style="fill:#fff"/><path d="M98.82 142.88a4.75 4.75 0 0 1-3.89-2l-3.14-4.44a4.77 4.77 0 0 1 1.13-6.64L94 129a4.77 4.77 0 0 1 6.64 1.13l3.14 4.44a4.76 4.76 0 0 1-1.14 6.64l-1.1.78a4.77 4.77 0 0 1-2.72.89Zm-2-11.26a1.25 1.25 0 0 0-.74.23l-1.11.79a1.28 1.28 0 0 0-.31 1.79l3.14 4.44a1.3 1.3 0 0 0 1.8.31l1.11-.79a1.29 1.29 0 0 0 .31-1.8l-3.15-4.43a1.26 1.26 0 0 0-1.09-.54Z" style="fill:#fff"/><path d="M93.74 149a4.57 4.57 0 0 1-.83-.07 4.89 4.89 0 0 1-3.17-2l-7.89-11.16a4.87 4.87 0 0 1 1.16-6.8l1.16-.82a4.81 4.81 0 0 1 3.64-.83 4.87 4.87 0 0 1 3.16 2l7.9 11.16a4.86 4.86 0 0 1-1.17 6.8l-1.15.82a4.84 4.84 0 0 1-2.81.9ZM87 130.68a1.44 1.44 0 0 0-.81.26l-1.16.82a1.41 1.41 0 0 0-.57.91 1.38 1.38 0 0 0 .24 1.05l7.9 11.16a1.42 1.42 0 0 0 .91.58 1.39 1.39 0 0 0 1.05-.24l1.16-.82a1.41 1.41 0 0 0 .57-.91 1.35 1.35 0 0 0-.24-1.05l-7.9-11.16a1.4 1.4 0 0 0-1.15-.6Z" style="fill:#fff"/><path d="M85.77 151a4.76 4.76 0 0 1-.83-.08 4.8 4.8 0 0 1-3.16-2l-5.87-8.29a4.87 4.87 0 0 1 1.16-6.8l1.16-.82a4.87 4.87 0 0 1 6.8 1.16l5.87 8.29a4.88 4.88 0 0 1-1.16 6.81l-1.16.82a4.84 4.84 0 0 1-2.81.91Zm-4.72-15.4a1.39 1.39 0 0 0-.81.26l-1.16.81a1.42 1.42 0 0 0-.33 2l5.86 8.33a1.41 1.41 0 0 0 .91.57 1.38 1.38 0 0 0 1.06-.24l1.15-.82a1.4 1.4 0 0 0 .58-.91 1.45 1.45 0 0 0-.24-1l-5.87-8.29a1.37 1.37 0 0 0-.91-.57 1 1 0 0 0-.24-.1Z" style="fill:#fff"/><path d="M78.81 155a5 5 0 0 1-4.09-2.11l-4.83-6.82a5 5 0 0 1 1.19-7l1.2-.85a5 5 0 0 1 7 1.19l4.82 6.82a4.93 4.93 0 0 1 .85 3.74 5 5 0 0 1-2 3.24l-1.2.85a5 5 0 0 1-2.94.94Zm-3.63-14.21a1.57 1.57 0 0 0-.89.28l-1.2.86a1.54 1.54 0 0 0-.37 2.14l4.83 6.81a1.53 1.53 0 0 0 2.14.37l1.2-.85a1.52 1.52 0 0 0 .63-1 1.54 1.54 0 0 0-.26-1.14l-4.83-6.82a1.52 1.52 0 0 0-1-.63Z" style="fill:#fff"/><path d="M62.55 152.64a4.39 4.39 0 0 1-2.08-8.26l4.89-2.63a1.74 1.74 0 0 1 1.64 3.06l-4.88 2.63a.91.91 0 0 0-.32 1.33.91.91 0 0 0 1.13.31l8.79-4a1.74 1.74 0 0 1 1.44 3.16l-8.79 4a4.33 4.33 0 0 1-1.82.4Z" style="fill:#fff"/><path d="M55.58 150a5.14 5.14 0 0 1-2.58-9.57l14.18-8.24a1.74 1.74 0 0 1 1.75 3l-14.18 8.24a1.66 1.66 0 0 0-.8 1.08 1.68 1.68 0 0 0 2.37 1.88l4.79-2.39a1.74 1.74 0 1 1 1.53 3.12l-4.83 2.35a5 5 0 0 1-2.23.53Z" style="fill:#fff"/><path d="M50.56 145.05a5.48 5.48 0 0 1-1.44-.19 5.38 5.38 0 0 1-1.38-9.76l13.92-8.54a1.73 1.73 0 0 1 1.81 3l-13.91 8.54a1.9 1.9 0 0 0 .49 3.45 1.92 1.92 0 0 0 1.46-.19l11.12-6.5a1.74 1.74 0 0 1 1.75 3l-11.12 6.5a5.39 5.39 0 0 1-2.7.69Z" style="fill:#fff"/><path d="M45 139.88a6.41 6.41 0 0 1-1.5-.18 6.28 6.28 0 0 1-2-11.34l9.78-6.48a1.73 1.73 0 0 1 1.92 2.89l-9.78 6.49a2.8 2.8 0 0 0-.87 3.75 2.81 2.81 0 0 0 3.92 1l5.46-3.44a1.73 1.73 0 0 1 1.85 2.93l-5.45 3.45a6.27 6.27 0 0 1-3.33.93ZM111.05 135.09a1.72 1.72 0 0 1-1.59-1.05l-1.56-3.61-9.48-23.54-1.42-3.77a1.75 1.75 0 0 1 1-2.23l14.27-5.59a1.73 1.73 0 0 1 1.34 0 1.77 1.77 0 0 1 .92 1l12 31.13a1.75 1.75 0 0 1 0 1.33 1.73 1.73 0 0 1-1 .91L111.68 135a1.74 1.74 0 0 1-.63.09Zm-9.4-29.48L112 131.14l10.64-4.1-10.73-27.87-11 4.33Z" style="fill:#fff"/></g></g></svg>