<svg xmlns="http://www.w3.org/2000/svg" viewBox="0 0 37.69 37.71"><g data-name="Layer 2"><g data-name="Layer 1"><rect width="37.69" height="37.71" rx="7.76" style="fill:#00a7bf"/><path d="M8 25.64a9.46 9.46 0 0 0 6.4-1.87 5 5 0 0 1-4.19-3.19 6.83 6.83 0 0 0 1.72-.17c-2-.87-3.28-2.18-3.34-4.45.63.06 1.11.46 1.86.41-1.88-1.79-2.45-3.74-1.29-6.11A13.44 13.44 0 0 0 16 14.65l.44.11a9.58 9.58 0 0 0 2 .46c.73-.1 0-.94.18-2a4.5 4.5 0 0 1 7.13-3 2 2 0 0 0 2.25.22l1.34-.58c-.12 1-.86 1.51-1.46 2.24a3.25 3.25 0 0 0 1.85-.24 3.11 3.11 0 0 1-1.21 1.49 1.73 1.73 0 0 0-.71 1.46c-.31 9.85-11.49 17.47-19.14 11.4-.74-.58-.01.01-.67-.57Z" style="fill:#fcfdfe"/></g></g></svg>